<?xml version="1.0" encoding="UTF-8"?>
<svg id="Layer_1" data-name="Layer 1" xmlns="http://www.w3.org/2000/svg" viewBox="0 0 311 311">
  <defs>
    <style>
      .cls-1 {
        fill: #fff;
      }
    </style>
  </defs>
  <path class="cls-1" d="M311,0v311H0V0h311ZM284,53.01l-117.01,47.48c-1.6,1.09-.61,1.66.63,2.39,8.27,4.87,20.02,7.34,28.38,12.61-29.61,33.5-71.02,68.27-115.79,78.21-44.36,9.84-58.52-15.31-23.66-43.68l-3.04-4.9c-25.94,15.5-42.39,52.4-1.73,61.61,38.02,8.61,85.14-9.57,117.53-28.92,8.75-5.22,30.61-19.01,36.94-25.77,3.94-4.21,8.07-17.24,9.76-23.03l12.48,39.99,55.5-115.99ZM200,75.02c-8.05-3.37-16.31-7.15-25.36-5.88-2.3,2.99-3.19,6.21-5.66,9.34-13.35,16.94-44.34,16.34-56.41-1.54-1.36-2.01-2.66-7.26-4.2-7.8-29.94-1.03-46.99,24.72-69.23,40l-.17,1.32,26.07,38.53,18.86-13.14c-.81-5.16-2.32-10.21-4.13-15.11-1.33-3.58-4.68-7.48-4.27-10.73,18.37,17.57,13.54,51.41,8.51,73.99,3.29,2.41,32.49-12.48,37.3-15.19,22.69-12.8,43.8-30.51,60.7-50.28-.49-2.09-29.21-13.34-33.72-16.28-.96-.63-1.79.11-1.29-2.23,13.53-5.03,27.2-10.98,40.36-17.15,3.3-1.55,8.49-3.76,11.35-5.62.97-.63,1.79.11,1.28-2.22ZM168.99,70.01c-13.07,6.37-26.48,9.02-40.53,4.03-4.91-1.74-8.93-6.74-14.48-4.52,6.81,22.69,48.01,23.47,55.01.49ZM162.01,282c9.28-9.09,17.95-19.13,26.5-28.99,24.32-28.02,47.54-57.12,71.97-85.03,10.31-11.78,26.89-21.18,17.01-39.98-2.49,8.54-6.42,3.69-12.5,6.5-7.13,3.28-19.42,28.12-24.76,36.23-22.07,33.48-47.39,64.89-70.04,97.96-2.86,4.17-6.25,8.66-8.17,13.32ZM203,181l-1.49-15.99c-39.73,28.74-88.34,53.79-138.99,49.98-14.65-1.1-30.7-6.76-39.5-18.99,1.94,12.15,12.26,19.73,23.46,23.03,4.5,1.33,11.16,1.45,14.81,3.19,3.29,1.58,7.95,8.05,11.25,10.75,18.5,15.09,40.61,24.81,64.26,28.74,6.08,1.01,26.56,3.71,31.19,1.77,2.14-.9,8.92-10.57,9.02-13.48h-26.5c-10.08,0-35.38-10.14-44.53-15.51-1.3-.76-2.52.18-1.96-2.49l30.98,9.01,1.13-13.38,1.87-7.62,2,22c14.09,1.32,28.14,2.75,42.34,1.83l44.66-62.84h-24ZM272.91,165.06c-12.37,3.2-3.04,9.04-2,16.53,4.27,30.72-30.03,51.37-54.39,60.43-5.2,1.93-14.48,3.3-18.44,5.56-4.35,2.48-8.93,10.93-13.07,14.42,21.45-2.14,43.84-9.72,61.73-21.76,24.02-16.17,46.26-47.2,26.19-75.17ZM250.99,188l-45.99,50.99c22.92-4.11,57.89-22.76,45.99-50.99Z"/>
  <path d="M284,53.01l-55.5,115.99-12.48-39.99c-1.69,5.79-5.82,18.82-9.76,23.03-6.33,6.77-28.2,20.55-36.94,25.77-32.39,19.34-79.51,37.52-117.53,28.92-40.67-9.2-24.21-46.11,1.73-61.61l3.04,4.9c-34.86,28.37-20.7,53.53,23.66,43.68,44.77-9.93,86.18-44.71,115.79-78.21-8.36-5.27-20.11-7.74-28.38-12.61-1.24-.73-2.23-1.3-.63-2.39l117.01-47.48ZM229,88.01l-40.99,14.98c15.08,6.31,31.31-3.85,40.99-14.98Z"/>
  <path d="M200,75.02c.51,2.33-.32,1.6-1.28,2.22-2.87,1.86-8.05,4.07-11.35,5.62-13.16,6.17-26.83,12.12-40.36,17.15-.5,2.34.33,1.6,1.29,2.23,4.51,2.94,33.23,14.19,33.72,16.28-16.91,19.77-38.01,37.48-60.7,50.28-4.81,2.71-34.01,17.6-37.3,15.19,5.03-22.58,9.87-56.42-8.51-73.99-.41,3.26,2.94,7.15,4.27,10.73,1.81,4.89,3.32,9.94,4.13,15.11l-18.86,13.14-26.07-38.53.17-1.32c22.24-15.28,39.29-41.03,69.23-40,1.54.54,2.84,5.79,4.2,7.8,12.07,17.89,43.06,18.48,56.41,1.54,2.47-3.13,3.36-6.35,5.66-9.34,9.06-1.27,17.31,2.51,25.36,5.88Z"/>
  <path d="M203,181h24l-44.66,62.84c-14.2.91-28.26-.51-42.34-1.83l-2-22-1.87,7.62-1.13,13.38-30.98-9.01c-.56,2.66.67,1.73,1.96,2.49,9.15,5.37,34.45,15.51,44.53,15.51h26.5c-.1,2.91-6.88,12.58-9.02,13.48-4.62,1.94-25.1-.76-31.19-1.77-23.65-3.93-45.76-13.65-64.26-28.74-3.31-2.7-7.96-9.17-11.25-10.75-3.64-1.74-10.31-1.87-14.81-3.19-11.2-3.3-21.52-10.87-23.46-23.03,8.8,12.22,24.85,17.89,39.5,18.99,50.65,3.81,99.26-21.24,138.99-49.98l1.49,15.99Z"/>
  <path d="M162.01,282c1.92-4.66,5.32-9.15,8.17-13.32,22.65-33.06,47.98-64.48,70.04-97.96,5.34-8.11,17.64-32.95,24.76-36.23,6.09-2.8,10.01,2.04,12.5-6.5,9.88,18.8-6.7,28.2-17.01,39.98-24.43,27.9-47.65,57-71.97,85.03-8.56,9.86-17.22,19.89-26.5,28.99ZM270.99,141c-7.78,1.72-13.64,8.92-12.98,17,6.82-3.72,13.29-8.32,12.98-17Z"/>
  <path d="M272.91,165.06c20.07,27.97-2.17,59-26.19,75.17-17.89,12.04-40.28,19.62-61.73,21.76,4.15-3.49,8.73-11.94,13.07-14.42,3.96-2.26,13.25-3.62,18.44-5.56,24.37-9.06,58.67-29.71,54.39-60.43-1.04-7.49-10.37-13.32,2-16.53Z"/>
  <path d="M250.99,188c11.91,28.23-23.07,46.87-45.99,50.99l45.99-50.99Z"/>
  <path d="M168.99,70.01c-7,22.98-48.2,22.2-55.01-.49,5.55-2.22,9.57,2.78,14.48,4.52,14.05,4.99,27.46,2.34,40.53-4.03Z"/>
  <path class="cls-1" d="M229,88.01c-9.68,11.13-25.91,21.29-40.99,14.98l40.99-14.98Z"/>
  <path class="cls-1" d="M270.99,141c.31,8.67-6.16,13.28-12.98,17-.65-8.08,5.21-15.27,12.98-17Z"/>
</svg>